mtllib ./Level_Layout.All files.mtl
g pb-Layout
v -19.9 3 30
v -19.9 3 20
v -19.9 0 20
v -19.9 0 30
v 0.0999999 3 20
v 0.0999999 3 30
v 0.0999999 0 30
v 0.0999999 0 20
v -13.4 0 0
v -13.4 3 0
v -9.4 3 0
v -9.4 0 0
v -13.4 0 20
v -19.9 3 20
v -13.4 3 20
v -19.9 0 20
v -13.4 3 30
v -13.4 0 30
v -9.4 0 30
v -9.4 3 30
v -19.9 0 30
v -19.9 3 30
v -9.4 0 19.75
v -9.4 3 19.75
v -9.4 3 20
v -9.4 0 20
v -13.4 3 19.75
v -13.4 0 19.75
v -13.4 0 20
v -13.4 3 20
v -8.9 0 18
v -8.9 3 18
v -8.9 3 19.75
v -8.9 0 19.75
v -14.9 3 18
v -14.9 0 18
v -14.9 0 19.75
v -14.9 3 19.75
v 0.0999999 0 15.25
v 0.0999999 3 15.25
v 0.0999999 3 18
v 0.0999999 0 18
v -14.9 3 15
v -14.9 0 15
v -14.9 0 18
v -14.9 3 18
v -8.9 0 11
v -8.9 3 11
v -8.9 3 15
v -8.9 0 15
v -14.9 3 11
v -14.9 0 11
v -14.9 0 15
v -14.9 3 15
v 0.0999999 3 20
v 0.0999999 0 20
v -9.4 0 20
v -9.4 3 20
v 0.0999999 0 30
v 0.0999999 3 30
v -9.4 3 30
v -9.4 0 30
v -8.9 0 19.75
v -8.9 3 19.75
v -9.4 3 19.75
v -9.4 0 19.75
v -8.9 3 0
v -8.9 0 0
v -9.4 0 0
v -9.4 3 0
v -8.65 0 18
v -8.65 3 18
v -8.9 3 18
v -8.9 0 18
v -8.65 3 15
v -8.65 0 15
v -8.9 0 15
v -8.9 3 15
v 0.0999999 0 19.75
v 0.0999999 3 19.75
v -8.65 3 19.75
v -8.65 0 19.75
v 0.0999999 3 12
v 0.0999999 0 12
v -8.65 0 12
v -8.65 3 12
v -8.65 0 19.75
v -8.65 3 19.75
v -8.65 3 18
v -8.65 0 18
v 0.0999999 3 19.75
v 0.0999999 0 19.75
v 0.0999999 0 18
v 0.0999999 3 18
v -8.65 3 12
v -8.65 0 12
v -8.65 0 15
v -8.65 3 15
v 0.0999999 0 12
v 0.0999999 3 12
v 0.0999999 3 15.25
v 0.0999999 0 15.25
v -14.9 3 8
v -14.9 0 8
v -14.9 0 11
v -14.9 3 11
v 0.0999999 0 8.25
v 0.0999999 3 8.25
v 0.0999999 3 11
v 0.0999999 0 11
v -8.65 0 11
v -8.65 3 11
v -8.9 3 11
v -8.9 0 11
v -8.65 3 8
v -8.65 0 8
v -8.9 0 8
v -8.9 3 8
v 0.0999999 0 11.75
v 0.0999999 3 11.75
v -8.65 3 11.75
v -8.65 0 11.75
v 0.0999999 3 0
v 0.0999999 0 0
v -8.65 0 0
v -8.65 3 0
v -8.65 0 11.75
v -8.65 3 11.75
v -8.65 3 11
v -8.65 0 11
v 0.0999999 3 11.75
v 0.0999999 0 11.75
v 0.0999999 0 11
v 0.0999999 3 11
v -8.65 3 0
v -8.65 0 0
v -8.65 0 8
v -8.65 3 8
v 0.0999999 0 0
v 0.0999999 3 0
v 0.0999999 3 8.25
v 0.0999999 0 8.25
v -14.9 3 0
v -14.9 0 0
v -14.9 0 8
v -14.9 3 8
v -8.9 0 0
v -8.9 3 0
v -8.9 3 8
v -8.9 0 8
v -14.9 3 19.75
v -14.9 0 19.75
v -13.4 0 19.75
v -13.4 3 19.75
v -14.9 0 0
v -14.9 3 0
v -13.4 3 0
v -13.4 0 0
v -13.4 3 30
v -13.4 3 20
v -19.9 3 20
v -19.9 3 30
v -9.4 3 20
v -9.4 3 30
v -9.4 3 19.75
v -13.4 3 19.75
v -13.4 3 20
v -9.4 3 20
v -9.4 3 18
v -13.4 3 18
v -13.4 3 19.75
v -9.4 3 19.75
v -9.4 3 15
v -13.4 3 15
v -13.4 3 18
v -9.4 3 18
v -9.4 3 11
v -13.4 3 11
v -13.4 3 15
v -9.4 3 15
v 0.0999999 3 30
v 0.0999999 3 20
v -9.4 3 20
v -9.4 3 30
v -8.9 3 19.75
v -8.9 3 18
v -9.4 3 18
v -9.4 3 19.75
v -8.9 3 18
v -8.9 3 15
v -9.4 3 15
v -9.4 3 18
v -8.9 3 15
v -8.9 3 11
v -9.4 3 11
v -9.4 3 15
v -8.65 3 18
v -8.65 3 15
v -8.9 3 15
v -8.9 3 18
v 0.0999999 3 18
v 0.0999999 3 15.25
v -8.65 3 15
v -8.65 3 18
v -8.65 3 19.75
v 0.0999999 3 19.75
v 0.0999999 3 18
v -8.65 3 18
v 0.0999999 3 12
v -8.65 3 12
v -8.65 3 15
v 0.0999999 3 15.25
v -9.4 3 8
v -13.4 3 8
v -13.4 3 11
v -9.4 3 11
v -8.9 3 8
v -9.4 3 8
v -9.4 3 11
v -8.9 3 11
v -8.65 3 11
v -8.65 3 8
v -8.9 3 8
v -8.9 3 11
v 0.0999999 3 11
v 0.0999999 3 8.25
v -8.65 3 8
v -8.65 3 11
v -8.65 3 11.75
v 0.0999999 3 11.75
v 0.0999999 3 11
v -8.65 3 11
v 0.0999999 3 0
v -8.65 3 0
v -8.65 3 8
v 0.0999999 3 8.25
v -9.4 3 0
v -13.4 3 0
v -13.4 3 8
v -9.4 3 8
v -8.9 3 0
v -9.4 3 0
v -9.4 3 8
v -8.9 3 8
v -14.9 3 15
v -14.9 3 18
v -13.4 3 18
v -13.4 3 15
v -14.9 3 11
v -14.9 3 15
v -13.4 3 15
v -13.4 3 11
v -14.9 3 18
v -14.9 3 19.75
v -13.4 3 19.75
v -13.4 3 18
v -14.9 3 0
v -14.9 3 8
v -13.4 3 8
v -13.4 3 0
v -14.9 3 8
v -14.9 3 11
v -13.4 3 11
v -13.4 3 8
v -13.4 0 30
v -13.4 0 20
v -9.4 0 20
v -9.4 0 30
v -19.9 0 20
v -19.9 0 30
v -13.4 0 19.75
v -9.4 0 19.75
v -9.4 0 20
v -13.4 0 20
v -13.4 0 18
v -9.4 0 18
v -9.4 0 19.75
v -13.4 0 19.75
v -13.4 0 15
v -9.4 0 15
v -9.4 0 18
v -13.4 0 18
v -13.4 0 11
v -9.4 0 11
v -9.4 0 15
v -13.4 0 15
v 0.0999999 0 20
v 0.0999999 0 30
v -9.4 0 30
v -9.4 0 20
v -8.9 0 18
v -8.9 0 19.75
v -9.4 0 19.75
v -9.4 0 18
v -8.9 0 15
v -8.9 0 18
v -9.4 0 18
v -9.4 0 15
v -8.9 0 11
v -8.9 0 15
v -9.4 0 15
v -9.4 0 11
v -8.65 0 15
v -8.65 0 18
v -8.9 0 18
v -8.9 0 15
v 0.0999999 0 15.25
v 0.0999999 0 18
v -8.65 0 18
v -8.65 0 15
v 0.0999999 0 19.75
v -8.65 0 19.75
v -8.65 0 18
v 0.0999999 0 18
v -8.65 0 12
v 0.0999999 0 12
v 0.0999999 0 15.25
v -8.65 0 15
v -13.4 0 8
v -9.4 0 8
v -9.4 0 11
v -13.4 0 11
v -9.4 0 8
v -8.9 0 8
v -8.9 0 11
v -9.4 0 11
v -8.65 0 8
v -8.65 0 11
v -8.9 0 11
v -8.9 0 8
v 0.0999999 0 8.25
v 0.0999999 0 11
v -8.65 0 11
v -8.65 0 8
v 0.0999999 0 11.75
v -8.65 0 11.75
v -8.65 0 11
v 0.0999999 0 11
v -8.65 0 0
v 0.0999999 0 0
v 0.0999999 0 8.25
v -8.65 0 8
v -13.4 0 0
v -9.4 0 0
v -9.4 0 8
v -13.4 0 8
v -9.4 0 0
v -8.9 0 0
v -8.9 0 8
v -9.4 0 8
v -14.9 0 18
v -14.9 0 15
v -13.4 0 15
v -13.4 0 18
v -14.9 0 15
v -14.9 0 11
v -13.4 0 11
v -13.4 0 15
v -14.9 0 19.75
v -14.9 0 18
v -13.4 0 18
v -13.4 0 19.75
v -14.9 0 8
v -14.9 0 0
v -13.4 0 0
v -13.4 0 8
v -14.9 0 11
v -14.9 0 8
v -13.4 0 8
v -13.4 0 11

vn 1 0 0
vn 1 0 0
vn 1 0 0
vn 1 0 0
vn -1 0 0
vn -1 0 0
vn -1 0 0
vn -1 0 0
vn 0 0 1
vn 0 0 1
vn 0 0 1
vn 0 0 1
vn 0 0 1
vn 0 0 1
vn 0 0 1
vn 0 0 1
vn 0 0 -1
vn 0 0 -1
vn 0 0 -1
vn 0 0 -1
vn 0 0 -1
vn 0 0 -1
vn -1 0 0
vn -1 0 0
vn -1 0 0
vn -1 0 0
vn 1 0 0
vn 1 0 0
vn 1 0 0
vn 1 0 0
vn -1 0 0
vn -1 0 0
vn -1 0 0
vn -1 0 0
vn 1 0 0
vn 1 0 0
vn 1 0 0
vn 1 0 0
vn -1 0 0
vn -1 0 0
vn -1 0 0
vn -1 0 0
vn 1 0 0
vn 1 0 0
vn 1 0 0
vn 1 0 0
vn -1 0 0
vn -1 0 0
vn -1 0 0
vn -1 0 0
vn 1 0 0
vn 1 0 0
vn 1 0 0
vn 1 0 0
vn 0 0 1
vn 0 0 1
vn 0 0 1
vn 0 0 1
vn 0 0 -1
vn 0 0 -1
vn 0 0 -1
vn 0 0 -1
vn 0 0 -1
vn 0 0 -1
vn 0 0 -1
vn 0 0 -1
vn 0 0 1
vn 0 0 1
vn 0 0 1
vn 0 0 1
vn 0 0 -1
vn 0 0 -1
vn 0 0 -1
vn 0 0 -1
vn 0 0 1
vn 0 0 1
vn 0 0 1
vn 0 0 1
vn 0 0 -1
vn 0 0 -1
vn 0 0 -1
vn 0 0 -1
vn 0 0 1
vn 0 0 1
vn 0 0 1
vn 0 0 1
vn 1 0 0
vn 1 0 0
vn 1 0 0
vn 1 0 0
vn -1 0 0
vn -1 0 0
vn -1 0 0
vn -1 0 0
vn 1 0 0
vn 1 0 0
vn 1 0 0
vn 1 0 0
vn -1 0 0
vn -1 0 0
vn -1 0 0
vn -1 0 0
vn 1 0 0
vn 1 0 0
vn 1 0 0
vn 1 0 0
vn -1 0 0
vn -1 0 0
vn -1 0 0
vn -1 0 0
vn 0 0 -1
vn 0 0 -1
vn 0 0 -1
vn 0 0 -1
vn 0 0 1
vn 0 0 1
vn 0 0 1
vn 0 0 1
vn 0 0 -1
vn 0 0 -1
vn 0 0 -1
vn 0 0 -1
vn 0 0 1
vn 0 0 1
vn 0 0 1
vn 0 0 1
vn 1 0 0
vn 1 0 0
vn 1 0 0
vn 1 0 0
vn -1 0 0
vn -1 0 0
vn -1 0 0
vn -1 0 0
vn 1 0 0
vn 1 0 0
vn 1 0 0
vn 1 0 0
vn -1 0 0
vn -1 0 0
vn -1 0 0
vn -1 0 0
vn 1 0 0
vn 1 0 0
vn 1 0 0
vn 1 0 0
vn -1 0 0
vn -1 0 0
vn -1 0 0
vn -1 0 0
vn 0 0 -1
vn 0 0 -1
vn 0 0 -1
vn 0 0 -1
vn 0 0 1
vn 0 0 1
vn 0 0 1
vn 0 0 1
vn 0 -1 0
vn 0 -1 0
vn 0 -1 0
vn 0 -1 0
vn 0 -1 0
vn 0 -1 0
vn 0 -1 0
vn 0 -1 0
vn 0 -1 0
vn 0 -1 0
vn 0 -1 0
vn 0 -1 0
vn 0 -1 0
vn 0 -1 0
vn 0 -1 0
vn 0 -1 0
vn 0 -1 0
vn 0 -1 0
vn 0 -1 0
vn 0 -1 0
vn 0 -1 0
vn 0 -1 0
vn 0 -1 0
vn 0 -1 0
vn 0 -1 0
vn 0 -1 0
vn 0 -1 0
vn 0 -1 0
vn 0 -1 0
vn 0 -1 0
vn 0 -1 0
vn 0 -1 0
vn 0 -1 0
vn 0 -1 0
vn 0 -1 0
vn 0 -1 0
vn 0 -1 0
vn 0 -1 0
vn 0 -1 0
vn 0 -1 0
vn 0 -1 0
vn 0 -1 0
vn 0 -1 0
vn 0 -1 0
vn 0 -1 0
vn 0 -1 0
vn 0 -0.9999999 0
vn 0 -0.9999999 0
vn 0 -0.9999999 0
vn 0 -0.9999999 0
vn 0 -1 0
vn 0 -1 0
vn 0 -1 0
vn 0 -1 0
vn 0 -1 0
vn 0 -1 0
vn 0 -1 0
vn 0 -1 0
vn 0 -1 0
vn 0 -1 0
vn 0 -1 0
vn 0 -1 0
vn 0 -1 0
vn 0 -1 0
vn 0 -1 0
vn 0 -1 0
vn 0 -1 0
vn 0 -1 0
vn 0 -1 0
vn 0 -1 0
vn 0 -1 0
vn 0 -1 0
vn 0 -1 0
vn 0 -1 0
vn 0 -1 0
vn 0 -1 0
vn 0 -1 0
vn 0 -1 0
vn 0 -1 0
vn 0 -1 0
vn 0 -1 0
vn 0 -1 0
vn 0 -1 0
vn 0 -1 0
vn 0 -1 0
vn 0 -1 0
vn 0 -1 0
vn 0 -1 0
vn 0 -1 0
vn 0 -1 0
vn 0 -1 0
vn 0 -1 0
vn 0 -1 0
vn 0 -1 0
vn 0 -1 0
vn 0 -1 0
vn 0 -1 0
vn 0 -1 0
vn 0 -1 0
vn 0 -1 0
vn 0 -1 0
vn 0 -1 0
vn 0 -1 0
vn 0 -1 0
vn 0 -1 0
vn 0 -1 0
vn 0 1 0
vn 0 1 0
vn 0 1 0
vn 0 1 0
vn 0 1 0
vn 0 1 0
vn 0 1 0
vn 0 1 0
vn 0 1 0
vn 0 1 0
vn 0 1 0
vn 0 1 0
vn 0 1 0
vn 0 1 0
vn 0 1 0
vn 0 1 0
vn 0 1 0
vn 0 1 0
vn 0 1 0
vn 0 1 0
vn 0 1 0
vn 0 1 0
vn 0 1 0
vn 0 1 0
vn 0 1 0
vn 0 1 0
vn 0 1 0
vn 0 1 0
vn 0 1 0
vn 0 1 0
vn 0 1 0
vn 0 1 0
vn 0 1 0
vn 0 1 0
vn 0 1 0
vn 0 1 0
vn 0 1 0
vn 0 1 0
vn 0 1 0
vn 0 1 0
vn 0 1 0
vn 0 1 0
vn 0 1 0
vn 0 1 0
vn 0 1 0
vn 0 1 0
vn 0 0.9999999 0
vn 0 0.9999999 0
vn 0 0.9999999 0
vn 0 0.9999999 0
vn 0 1 0
vn 0 1 0
vn 0 1 0
vn 0 1 0
vn 0 1 0
vn 0 1 0
vn 0 1 0
vn 0 1 0
vn 0 1 0
vn 0 1 0
vn 0 1 0
vn 0 1 0
vn 0 1 0
vn 0 1 0
vn 0 1 0
vn 0 1 0
vn 0 1 0
vn 0 1 0
vn 0 1 0
vn 0 1 0
vn 0 1 0
vn 0 1 0
vn 0 1 0
vn 0 1 0
vn 0 1 0
vn 0 1 0
vn 0 1 0
vn 0 1 0
vn 0 1 0
vn 0 1 0
vn 0 1 0
vn 0 1 0
vn 0 1 0
vn 0 1 0
vn 0 1 0
vn 0 1 0
vn 0 1 0
vn 0 1 0
vn 0 1 0
vn 0 1 0
vn 0 1 0
vn 0 1 0
vn 0 1 0
vn 0 1 0
vn 0 1 0
vn 0 1 0
vn 0 1 0
vn 0 1 0
vn 0 1 0
vn 0 1 0
vn 0 1 0
vn 0 1 0
vn 0 1 0
vn 0 1 0
vn 0 1 0
vn 0 1 0

vt 0 3
vt 10 3
vt 10 0
vt 0 0
vt 0 3
vt 10 3
vt 10 0
vt 0 0
vt 0 0
vt 0 3
vt 4 3
vt 4 0
vt 6.5 0
vt 0 3
vt 6.5 3
vt 0 0
vt 4 3
vt 4 0
vt 0 0
vt 0 3
vt 10.5 0
vt 10.5 3
vt 0 0
vt 0 3
vt 0.25 3
vt 0.25 0
vt 0.25 3
vt 0.25 0
vt 0 0
vt 0 3
vt 0 0
vt 0 3
vt 1.75 3
vt 1.75 0
vt 1.75 3
vt 1.75 0
vt 0 0
vt 0 3
vt 0 0
vt 0 3
vt 2.75 3
vt 2.75 0
vt 3 3
vt 3 0
vt 0 0
vt 0 3
vt 0 0
vt 0 3
vt 4 3
vt 4 0
vt 4 3
vt 4 0
vt 0 0
vt 0 3
vt 9.5 3
vt 9.5 0
vt 0 0
vt 0 3
vt 0 0
vt 0 3
vt 9.5 3
vt 9.5 0
vt 0 0
vt 0 3
vt 0.5 3
vt 0.5 0
vt 0.5 3
vt 0.5 0
vt 0 0
vt 0 3
vt 0 0
vt 0 3
vt 0.25 3
vt 0.25 0
vt 0.25 3
vt 0.25 0
vt 0 0
vt 0 3
vt 0 0
vt 0 3
vt 8.75 3
vt 8.75 0
vt 8.75 3
vt 8.75 0
vt 0 0
vt 0 3
vt 0 0
vt 0 3
vt 1.75 3
vt 1.75 0
vt 1.75 3
vt 1.75 0
vt 0 0
vt 0 3
vt 3 3
vt 3 0
vt 0 0
vt 0 3
vt 0 0
vt 0 3
vt 3.25 3
vt 3.25 0
vt 3 3
vt 3 0
vt 0 0
vt 0 3
vt 0 0
vt 0 3
vt 2.75 3
vt 2.75 0
vt 0 0
vt 0 3
vt 0.25 3
vt 0.25 0
vt 0.25 3
vt 0.25 0
vt 0 0
vt 0 3
vt 0 0
vt 0 3
vt 8.75 3
vt 8.75 0
vt 8.75 3
vt 8.75 0
vt 0 0
vt 0 3
vt 0 0
vt 0 3
vt 0.75 3
vt 0.75 0
vt 0.75 3
vt 0.75 0
vt 0 0
vt 0 3
vt 8 3
vt 8 0
vt 0 0
vt 0 3
vt 0 0
vt 0 3
vt 8.25 3
vt 8.25 0
vt 8 3
vt 8 0
vt 0 0
vt 0 3
vt 0 0
vt 0 3
vt 8 3
vt 8 0
vt 1.5 3
vt 1.5 0
vt 0 0
vt 0 3
vt 0 0
vt 0 3
vt 1.5 3
vt 1.5 0
vt 6.5 10
vt 6.5 0
vt 0 0
vt 0 10
vt 10.5 0
vt 10.5 10
vt 4 0
vt 0 0
vt 0 0.25
vt 4 0.25
vt 4 0
vt 0 0
vt 0 1.75
vt 4 1.75
vt 4 0
vt 0 0
vt 0 3
vt 4 3
vt 4 0
vt 0 0
vt 0 4
vt 4 4
vt 9.5 10
vt 9.5 0
vt 0 0
vt 0 10
vt 0.5 1.75
vt 0.5 0
vt 0 0
vt 0 1.75
vt 0.5 3
vt 0.5 0
vt 0 0
vt 0 3
vt 0.5 4
vt 0.5 0
vt 0 0
vt 0 4
vt 0.25 3
vt 0.25 0
vt 0 0
vt 0 3
vt 8.75 3
vt 8.75 0.25
vt 0 0
vt 0 3
vt 0 1.75
vt 8.75 1.75
vt 8.75 0
vt 0 0
vt 8.75 0
vt 0 0
vt 0 3
vt 8.75 3.25
vt 4 0
vt 0 0
vt 0 3
vt 4 3
vt 0.5 0
vt 0 0
vt 0 3
vt 0.5 3
vt 0.25 3
vt 0.25 0
vt 0 0
vt 0 3
vt 8.75 3
vt 8.75 0.25
vt 0 0
vt 0 3
vt 0 0.75
vt 8.75 0.75
vt 8.75 0
vt 0 0
vt 8.75 0
vt 0 0
vt 0 8
vt 8.75 8.25
vt 4 0
vt 0 0
vt 0 8
vt 4 8
vt 0.5 0
vt 0 0
vt 0 8
vt 0.5 8
vt 0 0
vt 0 3
vt 1.5 3
vt 1.5 0
vt 0 0
vt 0 4
vt 1.5 4
vt 1.5 0
vt 0 0
vt 0 1.75
vt 1.5 1.75
vt 1.5 0
vt 0 0
vt 0 8
vt 1.5 8
vt 1.5 0
vt 0 0
vt 0 3
vt 1.5 3
vt 1.5 0
vt 4 10
vt 4 0
vt 0 0
vt 0 10
vt 10.5 0
vt 10.5 10
vt 4 0
vt 0 0
vt 0 0.25
vt 4 0.25
vt 4 0
vt 0 0
vt 0 1.75
vt 4 1.75
vt 4 0
vt 0 0
vt 0 3
vt 4 3
vt 4 0
vt 0 0
vt 0 4
vt 4 4
vt 0 0
vt 0 10
vt 9.5 10
vt 9.5 0
vt 0 0
vt 0 1.75
vt 0.5 1.75
vt 0.5 0
vt 0 0
vt 0 3
vt 0.5 3
vt 0.5 0
vt 0 0
vt 0 4
vt 0.5 4
vt 0.5 0
vt 0 0
vt 0 3
vt 0.25 3
vt 0.25 0
vt 0 0.25
vt 0 3
vt 8.75 3
vt 8.75 0
vt 0 1.75
vt 8.75 1.75
vt 8.75 0
vt 0 0
vt 8.75 0
vt 0 0
vt 0 3.25
vt 8.75 3
vt 4 0
vt 0 0
vt 0 3
vt 4 3
vt 0.5 0
vt 0 0
vt 0 3
vt 0.5 3
vt 0 0
vt 0 3
vt 0.25 3
vt 0.25 0
vt 0 0.25
vt 0 3
vt 8.75 3
vt 8.75 0
vt 0 0.75
vt 8.75 0.75
vt 8.75 0
vt 0 0
vt 8.75 0
vt 0 0
vt 0 8.25
vt 8.75 8
vt 4 0
vt 0 0
vt 0 8
vt 4 8
vt 0.5 0
vt 0 0
vt 0 8
vt 0.5 8
vt 1.5 3
vt 1.5 0
vt 0 0
vt 0 3
vt 1.5 4
vt 1.5 0
vt 0 0
vt 0 4
vt 1.5 1.75
vt 1.5 0
vt 0 0
vt 0 1.75
vt 1.5 8
vt 1.5 0
vt 0 0
vt 0 8
vt 1.5 3
vt 1.5 0
vt 0 0
vt 0 3

g Walls1Mat
usemtl Walls1Mat
usemap Walls1Mat
f 2/2/2 1/1/1 3/3/3
f 3/3/3 1/1/1 4/4/4
f 6/6/6 5/5/5 7/7/7
f 7/7/7 5/5/5 8/8/8
f 10/10/10 9/9/9 11/11/11
f 11/11/11 9/9/9 12/12/12
f 14/14/14 13/13/13 15/15/15
f 16/16/16 13/13/13 14/14/14
f 18/18/18 17/17/17 19/19/19
f 19/19/19 17/17/17 20/20/20
f 21/21/21 17/17/17 18/18/18
f 22/22/22 17/17/17 21/21/21
f 24/24/24 23/23/23 25/25/25
f 25/25/25 23/23/23 26/26/26
f 28/28/28 27/27/27 29/29/29
f 29/29/29 27/27/27 30/30/30
f 32/32/32 31/31/31 33/33/33
f 33/33/33 31/31/31 34/34/34
f 36/36/36 35/35/35 37/37/37
f 37/37/37 35/35/35 38/38/38
f 40/40/40 39/39/39 41/41/41
f 41/41/41 39/39/39 42/42/42
f 44/44/44 43/43/43 45/45/45
f 45/45/45 43/43/43 46/46/46
f 48/48/48 47/47/47 49/49/49
f 49/49/49 47/47/47 50/50/50
f 52/52/52 51/51/51 53/53/53
f 53/53/53 51/51/51 54/54/54
f 56/56/56 55/55/55 57/57/57
f 57/57/57 55/55/55 58/58/58
f 60/60/60 59/59/59 61/61/61
f 61/61/61 59/59/59 62/62/62
f 64/64/64 63/63/63 65/65/65
f 65/65/65 63/63/63 66/66/66
f 68/68/68 67/67/67 69/69/69
f 69/69/69 67/67/67 70/70/70
f 72/72/72 71/71/71 73/73/73
f 73/73/73 71/71/71 74/74/74
f 76/76/76 75/75/75 77/77/77
f 77/77/77 75/75/75 78/78/78
f 80/80/80 79/79/79 81/81/81
f 81/81/81 79/79/79 82/82/82
f 84/84/84 83/83/83 85/85/85
f 85/85/85 83/83/83 86/86/86
f 88/88/88 87/87/87 89/89/89
f 89/89/89 87/87/87 90/90/90
f 92/92/92 91/91/91 93/93/93
f 93/93/93 91/91/91 94/94/94
f 96/96/96 95/95/95 97/97/97
f 97/97/97 95/95/95 98/98/98
f 100/100/100 99/99/99 101/101/101
f 101/101/101 99/99/99 102/102/102
f 104/104/104 103/103/103 105/105/105
f 105/105/105 103/103/103 106/106/106
f 108/108/108 107/107/107 109/109/109
f 109/109/109 107/107/107 110/110/110
f 112/112/112 111/111/111 113/113/113
f 113/113/113 111/111/111 114/114/114
f 116/116/116 115/115/115 117/117/117
f 117/117/117 115/115/115 118/118/118
f 120/120/120 119/119/119 121/121/121
f 121/121/121 119/119/119 122/122/122
f 124/124/124 123/123/123 125/125/125
f 125/125/125 123/123/123 126/126/126
f 128/128/128 127/127/127 129/129/129
f 129/129/129 127/127/127 130/130/130
f 132/132/132 131/131/131 133/133/133
f 133/133/133 131/131/131 134/134/134
f 136/136/136 135/135/135 137/137/137
f 137/137/137 135/135/135 138/138/138
f 140/140/140 139/139/139 141/141/141
f 141/141/141 139/139/139 142/142/142
f 144/144/144 143/143/143 145/145/145
f 145/145/145 143/143/143 146/146/146
f 148/148/148 147/147/147 149/149/149
f 149/149/149 147/147/147 150/150/150
f 152/152/152 151/151/151 153/153/153
f 153/153/153 151/151/151 154/154/154
f 156/156/156 155/155/155 157/157/157
f 157/157/157 155/155/155 158/158/158

g Ceiling1Mat
usemtl Ceiling1Mat
usemap Ceiling1Mat
f 160/160/160 159/159/159 161/161/161
f 161/161/161 159/159/159 162/162/162
f 163/163/163 159/159/159 160/160/160
f 164/164/164 159/159/159 163/163/163
f 166/166/166 165/165/165 167/167/167
f 167/167/167 165/165/165 168/168/168
f 170/170/170 169/169/169 171/171/171
f 171/171/171 169/169/169 172/172/172
f 174/174/174 173/173/173 175/175/175
f 175/175/175 173/173/173 176/176/176
f 178/178/178 177/177/177 179/179/179
f 179/179/179 177/177/177 180/180/180
f 182/182/182 181/181/181 183/183/183
f 183/183/183 181/181/181 184/184/184
f 186/186/186 185/185/185 187/187/187
f 187/187/187 185/185/185 188/188/188
f 190/190/190 189/189/189 191/191/191
f 191/191/191 189/189/189 192/192/192
f 194/194/194 193/193/193 195/195/195
f 195/195/195 193/193/193 196/196/196
f 198/198/198 197/197/197 199/199/199
f 199/199/199 197/197/197 200/200/200
f 202/202/202 201/201/201 203/203/203
f 203/203/203 201/201/201 204/204/204
f 206/206/206 205/205/205 207/207/207
f 207/207/207 205/205/205 208/208/208
f 210/210/210 209/209/209 211/211/211
f 211/211/211 209/209/209 212/212/212
f 214/214/214 213/213/213 215/215/215
f 215/215/215 213/213/213 216/216/216
f 218/218/218 217/217/217 219/219/219
f 219/219/219 217/217/217 220/220/220
f 222/222/222 221/221/221 223/223/223
f 223/223/223 221/221/221 224/224/224
f 226/226/226 225/225/225 227/227/227
f 227/227/227 225/225/225 228/228/228
f 230/230/230 229/229/229 231/231/231
f 231/231/231 229/229/229 232/232/232
f 234/234/234 233/233/233 235/235/235
f 235/235/235 233/233/233 236/236/236
f 238/238/238 237/237/237 239/239/239
f 239/239/239 237/237/237 240/240/240
f 242/242/242 241/241/241 243/243/243
f 243/243/243 241/241/241 244/244/244
f 246/246/246 245/245/245 247/247/247
f 247/247/247 245/245/245 248/248/248
f 250/250/250 249/249/249 251/251/251
f 251/251/251 249/249/249 252/252/252
f 254/254/254 253/253/253 255/255/255
f 255/255/255 253/253/253 256/256/256
f 258/258/258 257/257/257 259/259/259
f 259/259/259 257/257/257 260/260/260
f 262/262/262 261/261/261 263/263/263
f 263/263/263 261/261/261 264/264/264

g Floor1Mat
usemtl Floor1Mat
usemap Floor1Mat
f 266/266/266 265/265/265 267/267/267
f 267/267/267 265/265/265 268/268/268
f 269/269/269 265/265/265 266/266/266
f 270/270/270 265/265/265 269/269/269
f 272/272/272 271/271/271 273/273/273
f 273/273/273 271/271/271 274/274/274
f 276/276/276 275/275/275 277/277/277
f 277/277/277 275/275/275 278/278/278
f 280/280/280 279/279/279 281/281/281
f 281/281/281 279/279/279 282/282/282
f 284/284/284 283/283/283 285/285/285
f 285/285/285 283/283/283 286/286/286
f 288/288/288 287/287/287 289/289/289
f 289/289/289 287/287/287 290/290/290
f 292/292/292 291/291/291 293/293/293
f 293/293/293 291/291/291 294/294/294
f 296/296/296 295/295/295 297/297/297
f 297/297/297 295/295/295 298/298/298
f 300/300/300 299/299/299 301/301/301
f 301/301/301 299/299/299 302/302/302
f 304/304/304 303/303/303 305/305/305
f 305/305/305 303/303/303 306/306/306
f 308/308/308 307/307/307 309/309/309
f 309/309/309 307/307/307 310/310/310
f 312/312/312 311/311/311 313/313/313
f 313/313/313 311/311/311 314/314/314
f 316/316/316 315/315/315 317/317/317
f 317/317/317 315/315/315 318/318/318
f 320/320/320 319/319/319 321/321/321
f 321/321/321 319/319/319 322/322/322
f 324/324/324 323/323/323 325/325/325
f 325/325/325 323/323/323 326/326/326
f 328/328/328 327/327/327 329/329/329
f 329/329/329 327/327/327 330/330/330
f 332/332/332 331/331/331 333/333/333
f 333/333/333 331/331/331 334/334/334
f 336/336/336 335/335/335 337/337/337
f 337/337/337 335/335/335 338/338/338
f 340/340/340 339/339/339 341/341/341
f 341/341/341 339/339/339 342/342/342
f 344/344/344 343/343/343 345/345/345
f 345/345/345 343/343/343 346/346/346
f 348/348/348 347/347/347 349/349/349
f 349/349/349 347/347/347 350/350/350
f 352/352/352 351/351/351 353/353/353
f 353/353/353 351/351/351 354/354/354
f 356/356/356 355/355/355 357/357/357
f 357/357/357 355/355/355 358/358/358
f 360/360/360 359/359/359 361/361/361
f 361/361/361 359/359/359 362/362/362
f 364/364/364 363/363/363 365/365/365
f 365/365/365 363/363/363 366/366/366
f 368/368/368 367/367/367 369/369/369
f 369/369/369 367/367/367 370/370/370
